<?xml version="1.0" standalone="no"?>
<!DOCTYPE svg PUBLIC "-//W3C//DTD SVG 20010904//EN"
 "http://www.w3.org/TR/2001/REC-SVG-20010904/DTD/svg10.dtd">
<svg version="1.0" xmlns="http://www.w3.org/2000/svg"
 width="1918.000000pt" height="1918.000000pt" viewBox="0 0 1918.000000 1918.000000"
 preserveAspectRatio="xMidYMid meet">
<metadata>
Created by potrace 1.11, written by Peter Selinger 2001-2013
</metadata>
<g transform="translate(0.000000,1918.000000) scale(0.100000,-0.100000)"
fill="#000000" stroke="none">
<path d="M9773 17580 c-217 -51 -354 -292 -283 -500 94 -277 439 -361 645
-156 72 72 107 148 113 245 9 161 -69 305 -201 372 -88 45 -189 60 -274 39z"/>
<path d="M8874 17501 c-150 -38 -272 -175 -292 -326 -34 -267 203 -489 464
-435 248 51 382 317 275 547 -62 131 -189 215 -336 219 -44 2 -94 -1 -111 -5z"/>
<path d="M10655 17427 c-115 -39 -202 -113 -251 -213 -26 -53 -28 -69 -29
-164 0 -96 2 -110 29 -165 148 -300 566 -299 709 3 29 61 32 76 32 162 0 87
-3 101 -32 161 -68 138 -184 216 -333 224 -56 3 -99 0 -125 -8z"/>
<path d="M7950 17397 c-148 -42 -251 -149 -286 -294 -25 -109 -1 -225 67 -316
139 -184 406 -210 575 -55 88 81 126 168 126 288 -1 163 -99 307 -249 364 -62
23 -175 29 -233 13z"/>
<path d="M11585 17373 c-84 -18 -188 -90 -238 -165 -133 -202 -58 -467 163
-572 58 -28 75 -31 160 -31 86 0 101 3 162 32 278 131 307 509 53 677 -80 54
-209 79 -300 59z"/>
<path d="M6970 17329 c-247 -71 -365 -340 -248 -561 38 -72 111 -141 186 -176
50 -24 69 -27 157 -27 93 0 105 2 165 32 190 93 272 300 198 498 -31 84 -130
183 -213 215 -68 26 -190 35 -245 19z"/>
<path d="M12483 17145 c-145 -44 -257 -180 -272 -331 -16 -150 47 -284 171
-367 99 -65 216 -83 327 -48 343 107 376 572 51 725 -55 26 -78 31 -150 32
-47 1 -104 -4 -127 -11z"/>
<path d="M5943 17030 c-209 -42 -344 -237 -311 -447 43 -276 360 -416 596
-263 253 163 229 546 -41 674 -79 37 -170 51 -244 36z"/>
<path d="M13370 16905 c-286 -75 -392 -426 -193 -641 212 -229 596 -130 666
172 42 181 -41 357 -208 441 -74 38 -184 49 -265 28z"/>
<path d="M5014 16659 c-186 -34 -328 -212 -319 -399 14 -284 308 -459 562
-335 140 69 228 224 216 382 -17 225 -236 393 -459 352z"/>
<path d="M9842 16634 c-316 -65 -416 -476 -165 -680 178 -145 445 -107 570 82
87 132 88 304 1 434 -89 134 -246 197 -406 164z"/>
<path d="M14302 16564 c-100 -26 -164 -70 -223 -153 -138 -192 -71 -465 140
-570 72 -36 101 -43 183 -42 205 2 369 159 383 366 17 258 -234 465 -483 399z"/>
<path d="M8762 16500 c-251 -69 -368 -352 -238 -574 30 -52 110 -126 163 -151
253 -121 545 48 561 324 15 268 -231 471 -486 401z"/>
<path d="M6730 16488 c-207 -30 -357 -235 -322 -443 15 -90 46 -150 111 -215
86 -86 181 -123 297 -115 328 22 484 411 261 652 -91 98 -211 140 -347 121z"/>
<path d="M11880 16448 c-117 -21 -236 -114 -288 -226 -24 -50 -27 -69 -27
-157 0 -92 3 -105 32 -165 67 -137 181 -215 327 -224 115 -8 215 31 301 117
98 99 135 232 101 365 -51 199 -246 326 -446 290z"/>
<path d="M10898 16391 c-76 -25 -118 -52 -177 -116 -69 -77 -95 -145 -95 -260
0 -73 4 -100 22 -140 34 -75 69 -120 126 -164 149 -115 364 -106 501 20 124
114 162 300 92 452 -78 171 -290 265 -469 208z"/>
<path d="M7715 16347 c-165 -55 -270 -187 -280 -352 -10 -160 78 -307 224
-377 124 -59 287 -43 396 39 191 146 213 408 49 583 -70 75 -154 112 -263 116
-54 3 -101 -1 -126 -9z"/>
<path d="M3976 16230 c-32 -12 -70 -28 -85 -37 -49 -31 -118 -110 -147 -169
-26 -54 -29 -69 -29 -164 0 -94 3 -111 27 -160 149 -303 564 -306 708 -6 93
195 9 426 -188 519 -86 40 -201 47 -286 17z m304 -244 c0 -2 -8 -10 -17 -17
-16 -13 -17 -12 -4 4 13 16 21 21 21 13z"/>
<path d="M15091 16077 c-32 -10 -80 -35 -107 -56 -236 -178 -201 -537 66 -665
59 -28 74 -31 165 -31 92 0 105 3 165 32 74 35 102 58 152 125 140 184 71 468
-139 572 -97 49 -199 57 -302 23z"/>
<path d="M13562 16011 c-108 -37 -195 -118 -243 -226 -34 -76 -32 -208 3 -292
94 -226 366 -311 573 -178 231 147 236 489 10 645 -97 66 -237 88 -343 51z"/>
<path d="M12697 15974 c-291 -74 -402 -410 -209 -634 193 -227 564 -156 663
126 24 67 27 170 8 234 -14 50 -62 130 -104 173 -82 86 -242 131 -358 101z"/>
<path d="M5802 15861 c-103 -38 -178 -104 -226 -199 -102 -202 4 -464 219
-539 73 -26 204 -23 275 5 315 125 329 563 24 713 -86 43 -208 51 -292 20z"/>
<path d="M10285 15736 c-119 -28 -213 -107 -268 -224 -28 -60 -31 -77 -31
-157 0 -75 5 -99 27 -148 70 -153 203 -241 362 -239 240 3 418 212 383 450
-33 219 -257 369 -473 318z"/>
<path d="M3069 15637 c-107 -30 -199 -110 -252 -216 -29 -60 -32 -74 -32 -161
0 -86 3 -101 32 -162 142 -301 566 -303 708 -3 56 119 42 279 -35 391 -86 124
-275 192 -421 151z"/>
<path d="M6840 15638 c-193 -34 -334 -206 -324 -397 10 -216 173 -372 389
-374 381 -2 533 478 224 707 -74 54 -195 81 -289 64z"/>
<path d="M4867 15628 c-103 -22 -213 -111 -261 -211 -119 -251 53 -541 329
-555 223 -11 401 150 411 371 11 257 -223 450 -479 395z"/>
<path d="M9370 15606 c-113 -31 -202 -102 -250 -199 -101 -205 -25 -429 180
-530 60 -30 72 -32 165 -32 93 0 105 2 165 32 203 100 278 313 185 527 -22 51
-118 146 -175 174 -84 40 -187 51 -270 28z"/>
<path d="M15814 15579 c-118 -22 -242 -127 -285 -239 -37 -100 -34 -212 8
-302 115 -245 426 -307 621 -124 150 140 164 363 35 533 -31 40 -115 98 -173
119 -52 18 -147 25 -206 13z"/>
<path d="M14430 15528 c-124 -18 -244 -109 -298 -226 -54 -118 -37 -281 40
-389 66 -92 180 -153 295 -158 321 -16 522 337 345 603 -37 57 -114 121 -175
147 -53 22 -143 32 -207 23z"/>
<path d="M11760 15503 c-142 -36 -250 -146 -283 -288 -57 -249 131 -481 388
-478 365 4 519 476 227 699 -90 68 -222 95 -332 67z"/>
<path d="M8425 15456 c-85 -36 -134 -75 -182 -145 -52 -75 -67 -124 -68 -221
-2 -342 414 -516 659 -276 197 193 140 518 -112 634 -85 39 -214 42 -297 8z"/>
<path d="M4012 15280 c-156 -23 -296 -162 -321 -321 -57 -348 336 -584 621
-374 96 70 158 204 153 325 -12 236 -217 404 -453 370z"/>
<path d="M7615 15254 c-99 -24 -178 -73 -235 -145 -155 -197 -88 -484 140
-593 56 -27 77 -31 157 -33 74 -2 103 2 145 19 150 61 245 191 252 348 10 215
-150 392 -366 405 -40 2 -82 2 -93 -1z"/>
<path d="M10957 15133 c-142 -41 -251 -162 -278 -309 -43 -231 138 -450 375
-455 319 -7 509 350 327 614 -90 132 -269 195 -424 150z"/>
<path d="M13478 15145 c-2 -2 -21 -5 -43 -8 -222 -30 -374 -276 -308 -496 76
-254 392 -361 602 -203 64 48 95 88 129 159 24 51 27 70 27 158 0 87 -4 108
-27 157 -47 100 -135 179 -239 213 -39 12 -134 26 -141 20z"/>
<path d="M16460 15105 c-307 -64 -415 -451 -186 -663 198 -182 499 -125 619
118 30 60 32 72 32 165 0 93 -2 105 -32 165 -82 167 -255 253 -433 215z m-114
-241 c1 -9 0 -13 -4 -10 -3 4 -7 14 -8 22 -1 9 0 13 4 10 3 -4 7 -14 8 -22z
m169 -144 c3 -6 -1 -7 -9 -4 -18 7 -21 14 -7 14 6 0 13 -4 16 -10z"/>
<path d="M2350 14929 c-178 -34 -312 -198 -311 -382 1 -347 401 -516 662 -280
49 45 106 157 114 228 33 262 -204 483 -465 434z"/>
<path d="M15147 14899 c-69 -11 -166 -60 -215 -110 -128 -129 -149 -341 -49
-489 103 -151 291 -213 458 -150 246 91 337 389 181 595 -90 119 -231 177
-375 154z"/>
<path d="M12517 14860 c-173 -44 -297 -202 -297 -382 0 -307 349 -493 606
-322 64 43 105 91 142 171 23 50 27 70 27 153 0 86 -3 102 -32 162 -63 133
-186 217 -331 224 -42 2 -94 -1 -115 -6z m93 -362 c0 -4 -4 -8 -9 -8 -6 0 -12
4 -15 8 -3 5 1 9 9 9 8 0 15 -4 15 -9z"/>
<path d="M5410 14819 c-114 -23 -221 -108 -274 -219 -28 -60 -31 -73 -31 -165
0 -92 3 -105 32 -166 133 -273 512 -298 678 -45 163 248 -4 583 -299 600 -34
2 -81 0 -106 -5z"/>
<path d="M6345 14789 c-94 -33 -155 -83 -209 -172 -73 -122 -70 -283 7 -403
153 -239 505 -241 657 -4 129 201 50 468 -168 568 -80 36 -202 41 -287 11z"/>
<path d="M10052 14739 c-157 -29 -289 -168 -310 -326 -11 -82 1 -155 37 -228
31 -63 92 -130 148 -164 82 -50 220 -67 316 -37 184 56 303 251 268 440 -40
215 -243 355 -459 315z"/>
<path d="M3362 14588 c-212 -33 -363 -243 -323 -449 30 -149 120 -254 261
-304 212 -75 452 59 503 280 62 270 -167 516 -441 473z"/>
<path d="M14198 14573 c-181 -47 -297 -210 -286 -404 10 -200 181 -361 381
-361 203 1 357 131 390 330 33 203 -107 400 -313 440 -65 13 -106 12 -172 -5z"/>
<path d="M9163 14559 c-131 -16 -240 -94 -300 -217 -36 -72 -38 -81 -38 -171
0 -87 3 -102 32 -161 110 -224 374 -295 578 -155 155 106 209 318 125 489 -74
149 -230 234 -397 215z"/>
<path d="M17047 14519 c-108 -25 -210 -111 -261 -219 -28 -58 -31 -75 -31
-160 0 -86 3 -101 31 -160 51 -106 126 -174 231 -209 301 -101 589 182 495
487 -31 98 -86 166 -177 219 -84 50 -191 65 -288 42z"/>
<path d="M4478 14493 c-191 -49 -313 -214 -301 -406 15 -237 244 -407 476
-353 276 66 392 384 223 615 -87 118 -257 180 -398 144z"/>
<path d="M11750 14366 c-237 -48 -375 -294 -291 -516 108 -283 481 -345 668
-110 227 286 -21 697 -377 626z"/>
<path d="M8240 14355 c-30 -6 -76 -22 -102 -34 -61 -30 -142 -116 -176 -188
-24 -51 -27 -70 -27 -158 0 -91 3 -106 31 -165 95 -199 327 -281 527 -185 136
65 228 229 214 382 -22 233 -241 397 -467 348z"/>
<path d="M15907 14359 c-193 -30 -344 -229 -321 -423 29 -243 257 -399 491
-336 264 72 372 387 209 609 -85 115 -230 173 -379 150z"/>
<path d="M7250 14332 c-71 -27 -105 -48 -153 -97 -184 -190 -132 -499 103
-620 186 -96 429 -17 520 169 109 223 8 471 -224 549 -64 22 -186 21 -246 -1z"/>
<path d="M1695 14165 c-183 -41 -306 -193 -307 -380 -2 -273 270 -460 528
-364 293 110 338 515 77 688 -83 55 -203 78 -298 56z"/>
<path d="M13248 14159 c-149 -23 -275 -139 -314 -289 -62 -245 120 -480 373
-482 154 -1 287 81 355 220 31 62 33 74 33 167 0 91 -3 106 -31 165 -77 160
-240 246 -416 219z"/>
<path d="M10801 14104 c-162 -42 -280 -176 -297 -336 -17 -168 69 -320 222
-394 67 -32 83 -36 157 -36 165 0 287 75 360 222 30 60 32 72 32 165 0 91 -3
106 -31 165 -82 170 -267 259 -443 214z"/>
<path d="M5814 13920 c-244 -52 -376 -329 -265 -554 103 -210 371 -280 567
-150 185 123 226 393 86 566 -44 54 -110 101 -172 123 -55 20 -161 27 -216 15z"/>
<path d="M2704 13835 c-71 -23 -109 -43 -157 -85 -211 -186 -158 -527 101
-648 50 -24 69 -27 157 -27 92 0 105 3 165 31 242 117 301 422 119 619 -96
104 -256 149 -385 110z"/>
<path d="M15003 13824 c-123 -25 -228 -108 -281 -222 -24 -50 -27 -69 -27
-157 0 -91 3 -106 31 -166 120 -253 450 -303 640 -97 110 119 133 285 59 435
-79 161 -247 243 -422 207z"/>
<path d="M16595 13787 c-101 -34 -180 -96 -228 -179 -118 -202 -41 -447 173
-550 59 -29 74 -32 160 -32 91 -1 100 1 172 37 87 43 142 98 185 186 25 50 28
67 28 161 0 93 -3 112 -27 162 -38 81 -108 152 -187 190 -54 25 -80 32 -150
34 -54 3 -101 -1 -126 -9z"/>
<path d="M17551 13759 c-115 -29 -208 -107 -260 -218 -22 -49 -26 -69 -26
-156 0 -93 2 -105 32 -166 75 -152 233 -242 393 -223 287 33 443 354 288 596
-92 145 -258 210 -427 167z"/>
<path d="M9735 13700 c-244 -81 -344 -381 -197 -591 78 -112 182 -164 327
-164 80 0 97 3 156 31 251 119 305 439 106 636 -96 95 -261 132 -392 88z"/>
<path d="M3815 13686 c-139 -36 -241 -136 -286 -280 -7 -24 -10 -71 -6 -123 6
-109 45 -191 120 -259 73 -66 144 -97 238 -102 174 -10 311 73 386 234 24 51
28 71 28 154 0 88 -3 101 -32 161 -84 170 -273 261 -448 215z"/>
<path d="M13935 13686 c-209 -66 -328 -277 -269 -477 24 -80 47 -120 101 -174
176 -175 469 -143 604 66 114 179 55 437 -124 542 -91 53 -223 71 -312 43z
m155 -500 c0 -3 -4 -8 -10 -11 -5 -3 -10 -1 -10 4 0 6 5 11 10 11 6 0 10 -2
10 -4z"/>
<path d="M6700 13668 c-196 -31 -334 -198 -326 -396 4 -100 33 -173 95 -243
189 -212 522 -166 645 91 28 59 31 74 31 165 0 89 -3 107 -29 162 -18 39 -48
81 -81 112 -99 94 -207 129 -335 109z m-96 -446 c3 -5 -1 -9 -9 -9 -8 0 -12 4
-9 9 3 4 7 8 9 8 2 0 6 -4 9 -8z"/>
<path d="M4880 13644 c-112 -30 -199 -104 -252 -212 -30 -61 -33 -75 -33 -162
0 -83 4 -103 27 -153 37 -79 78 -128 141 -170 202 -135 475 -57 575 163 34 76
41 196 17 271 -67 205 -273 319 -475 263z"/>
<path d="M12559 13619 c-253 -39 -403 -325 -290 -554 90 -183 306 -268 494
-194 94 37 161 100 210 199 30 60 32 72 32 165 0 92 -2 105 -32 166 -76 155
-245 244 -414 218z"/>
<path d="M8790 13466 c-118 -24 -216 -98 -268 -203 -36 -70 -44 -105 -44 -186
0 -219 201 -401 421 -380 217 21 368 197 356 415 -12 231 -234 400 -465 354z"/>
<path d="M11594 13344 c-124 -25 -213 -94 -270 -209 -45 -91 -54 -171 -30
-263 75 -295 438 -398 651 -184 149 149 155 383 14 537 -97 105 -227 147 -365
119z"/>
<path d="M1145 13334 c-252 -78 -356 -387 -202 -602 173 -241 542 -204 671 68
28 59 31 74 31 160 0 85 -3 102 -31 160 -65 138 -190 222 -339 227 -51 1 -98
-3 -130 -13z"/>
<path d="M7720 13325 c-170 -46 -284 -186 -293 -359 -12 -222 163 -406 386
-407 301 -1 487 314 342 579 -61 113 -188 192 -317 197 -40 1 -93 -3 -118 -10z"/>
<path d="M15892 13309 c-315 -57 -430 -457 -194 -671 214 -194 557 -99 637
177 80 275 -162 545 -443 494z"/>
<path d="M10596 13179 c-64 -16 -155 -70 -197 -117 -176 -200 -112 -509 129
-620 83 -38 200 -43 285 -12 140 51 227 151 257 294 47 230 -126 450 -365 462
-38 2 -87 -1 -109 -7z"/>
<path d="M2135 13031 c-69 -23 -115 -53 -163 -105 -168 -182 -132 -462 76
-594 268 -170 615 36 596 354 -9 141 -92 263 -224 326 -55 27 -78 32 -150 34
-59 2 -100 -3 -135 -15z"/>
<path d="M16897 12970 c-219 -56 -346 -282 -279 -498 35 -110 104 -186 219
-240 50 -23 71 -27 153 -27 86 0 101 3 162 32 85 40 151 106 191 191 29 61 32
76 32 162 0 86 -3 101 -32 162 -63 134 -185 217 -331 224 -42 2 -94 -1 -115
-6z"/>
<path d="M17940 12962 c-173 -58 -282 -213 -274 -391 6 -146 86 -265 224 -334
60 -30 72 -32 165 -32 88 0 107 3 157 27 170 79 264 267 223 443 -27 119 -126
235 -235 276 -78 30 -190 34 -260 11z"/>
<path d="M14390 12942 c-73 -10 -171 -62 -224 -119 -156 -164 -135 -431 45
-573 197 -156 489 -84 597 148 23 50 27 70 27 157 0 92 -3 105 -31 165 -47 98
-131 174 -225 205 -49 16 -139 25 -189 17z"/>
<path d="M5546 12889 c-112 -38 -177 -98 -230 -209 -28 -59 -31 -74 -31 -160
1 -85 4 -102 31 -160 142 -301 558 -304 709 -4 27 54 30 67 30 164 0 94 -3
111 -27 160 -92 187 -292 274 -482 209z"/>
<path d="M3285 12886 c-79 -19 -126 -46 -186 -106 -238 -237 -97 -623 242
-663 96 -12 234 40 307 114 24 24 58 73 75 109 30 60 32 72 32 165 0 88 -3
107 -27 158 -34 71 -65 111 -129 159 -85 63 -209 89 -314 64z"/>
<path d="M13336 12864 c-105 -33 -183 -100 -234 -203 -35 -71 -37 -80 -37
-171 0 -86 3 -101 32 -162 39 -83 103 -147 190 -190 62 -30 75 -33 163 -33 82
0 103 4 152 27 76 35 121 70 162 127 126 171 88 422 -82 545 -95 70 -235 94
-346 60z"/>
<path d="M4452 12819 c-279 -36 -430 -356 -279 -592 137 -214 428 -246 607
-68 50 50 95 132 104 191 3 19 8 46 10 60 7 44 -12 130 -42 194 -70 147 -235
236 -400 215z"/>
<path d="M6660 12745 c-241 -68 -358 -334 -245 -555 95 -186 331 -264 519
-171 76 37 147 110 185 191 22 48 26 68 26 160 0 97 -2 110 -30 165 -84 169
-279 259 -455 210z"/>
<path d="M15165 12697 c-70 -24 -125 -57 -171 -103 -162 -164 -146 -430 35
-577 72 -58 140 -81 246 -82 81 0 97 3 157 32 206 97 289 335 187 535 -34 67
-106 135 -178 170 -55 27 -80 32 -151 35 -52 2 -101 -2 -125 -10z"/>
<path d="M9530 12640 c-109 -40 -196 -127 -236 -234 -13 -36 -19 -77 -19 -141
0 -80 3 -97 31 -155 103 -216 356 -291 562 -167 64 38 113 95 150 174 24 51
27 70 27 158 -1 88 -4 107 -28 157 -41 84 -105 149 -183 188 -59 29 -80 33
-158 36 -72 3 -102 0 -146 -16z"/>
<path d="M12420 12589 c-138 -27 -259 -142 -296 -281 -72 -271 157 -526 436
-486 124 19 243 108 298 226 24 50 27 69 27 157 0 91 -3 106 -31 165 -81 168
-252 255 -434 219z"/>
<path d="M795 12456 c-114 -37 -194 -106 -246 -211 -31 -62 -33 -76 -33 -159
0 -107 23 -175 81 -247 166 -204 476 -194 626 21 52 75 70 143 65 246 -11 205
-163 353 -373 361 -48 1 -96 -3 -120 -11z m-50 -324 c-3 -3 -11 0 -18 7 -9 10
-8 11 6 5 10 -3 15 -9 12 -12z m350 -232 c3 -6 -1 -7 -9 -4 -18 7 -21 14 -7
14 6 0 13 -4 16 -10z"/>
<path d="M8584 12460 c-212 -44 -352 -264 -300 -471 31 -120 97 -203 209 -262
58 -30 68 -32 167 -32 99 0 110 2 172 33 78 38 136 95 177 172 35 67 44 104
43 190 -1 162 -117 314 -276 362 -46 13 -146 18 -192 8z"/>
<path d="M11487 12369 c-104 -24 -213 -112 -260 -210 -119 -251 50 -541 324
-557 315 -18 521 314 362 585 -37 63 -124 138 -191 164 -62 23 -173 32 -235
18z"/>
<path d="M10560 12340 c-103 -25 -203 -97 -254 -184 -100 -171 -55 -394 103
-510 110 -81 273 -99 393 -44 247 113 307 438 116 629 -95 95 -235 138 -358
109z"/>
<path d="M16139 12317 c-108 -31 -203 -112 -253 -217 -28 -58 -31 -75 -31
-160 0 -86 3 -101 31 -160 39 -81 70 -119 137 -163 250 -166 584 -5 604 293
16 224 -144 405 -365 416 -45 2 -96 -2 -123 -9z"/>
<path d="M7602 12294 c-72 -19 -101 -35 -164 -93 -117 -107 -156 -279 -97
-424 105 -254 425 -329 624 -146 84 78 126 172 127 289 2 256 -241 441 -490
374z"/>
<path d="M17340 12237 c-210 -61 -326 -250 -285 -466 19 -100 111 -213 214
-264 61 -30 74 -32 166 -32 91 0 106 3 165 31 220 105 294 370 159 570 -42 62
-114 121 -178 145 -70 26 -181 33 -241 16z"/>
<path d="M1734 12120 c-167 -35 -292 -179 -307 -353 -13 -154 84 -317 231
-385 50 -23 70 -27 157 -27 91 0 106 3 165 31 149 71 233 212 225 378 -7 140
-111 285 -241 335 -66 25 -168 35 -230 21z"/>
<path d="M2735 12086 c-205 -53 -332 -250 -290 -451 40 -190 193 -316 385
-316 339 -1 513 405 281 655 -95 101 -245 146 -376 112z m119 -388 c-3 -4 -9
-8 -15 -8 -5 0 -9 4 -9 8 0 5 7 9 15 9 8 0 12 -4 9 -9z"/>
<path d="M18254 12075 c-123 -26 -218 -99 -275 -212 -32 -63 -34 -73 -34 -168
0 -93 2 -105 32 -165 90 -184 289 -268 480 -204 67 22 103 46 157 104 62 66
96 141 103 227 22 263 -209 471 -463 418z"/>
<path d="M14117 12040 c-94 -29 -174 -93 -222 -174 -30 -51 -56 -148 -54 -201
2 -50 25 -138 50 -187 29 -57 107 -128 179 -162 59 -28 74 -31 165 -31 92 0
105 2 166 32 292 143 294 555 3 699 -63 32 -86 38 -152 40 -54 2 -95 -3 -135
-16z"/>
<path d="M5800 11965 c-142 -37 -250 -149 -283 -290 -62 -268 161 -509 436
-473 224 30 377 259 322 483 -14 55 -67 145 -111 184 -44 41 -117 82 -169 96
-49 13 -147 13 -195 0z"/>
<path d="M4787 11960 c-133 -34 -245 -142 -283 -274 -68 -240 100 -478 347
-494 218 -13 398 140 416 356 14 169 -90 333 -250 394 -60 23 -175 32 -230 18z"/>
<path d="M3820 11946 c-73 -16 -120 -40 -174 -87 -130 -115 -170 -299 -98
-453 37 -79 73 -121 144 -167 120 -77 253 -83 384 -19 198 97 274 339 167 535
-81 148 -257 228 -423 191z m-126 -264 c3 -5 -1 -9 -9 -9 -8 0 -12 4 -9 9 3 4
7 8 9 8 2 0 6 -4 9 -8z m236 -126 c0 -2 -8 -10 -17 -17 -16 -13 -17 -12 -4 4
13 16 21 21 21 13z"/>
<path d="M15308 11819 c-236 -38 -384 -295 -299 -520 86 -226 360 -321 566
-197 94 57 157 145 179 252 25 116 2 218 -69 315 -87 118 -229 174 -377 150z"/>
<path d="M13050 11800 c-262 -55 -393 -351 -257 -583 50 -85 164 -167 252
-182 198 -32 361 53 441 231 34 74 39 199 11 279 -62 178 -263 293 -447 255z
m75 -360 c3 -5 1 -10 -4 -10 -6 0 -11 5 -11 10 0 6 2 10 4 10 3 0 8 -4 11 -10z"/>
<path d="M6686 11724 c-238 -76 -348 -356 -222 -568 160 -270 554 -253 691 29
27 54 29 70 30 165 0 93 -3 111 -27 162 -38 81 -108 152 -186 190 -81 38 -206
48 -286 22z"/>
<path d="M10037 11639 c-200 -47 -332 -248 -295 -450 22 -119 104 -226 216
-281 62 -31 74 -33 167 -33 91 0 106 3 165 31 148 70 233 214 224 376 -13 239
-244 412 -477 357z"/>
<path d="M16700 11605 c-294 -79 -394 -438 -182 -651 104 -103 271 -142 405
-94 121 43 216 144 251 265 23 82 9 200 -34 286 -78 152 -275 239 -440 194z"/>
<path d="M9193 11566 c-99 -32 -192 -111 -237 -201 -97 -195 -16 -428 182
-526 62 -30 75 -33 162 -33 114 -1 183 23 254 85 219 193 177 524 -83 652 -54
26 -77 31 -150 34 -54 2 -102 -2 -128 -11z"/>
<path d="M12013 11536 c-279 -91 -366 -438 -163 -645 57 -58 105 -85 192 -107
137 -36 277 11 381 125 66 74 91 144 91 256 0 80 -3 97 -31 157 -39 84 -109
155 -188 193 -50 24 -75 29 -150 32 -57 2 -105 -2 -132 -11z"/>
<path d="M640 11486 c-113 -31 -202 -102 -250 -199 -101 -205 -25 -429 180
-530 60 -30 72 -32 165 -32 92 0 105 3 165 32 245 118 301 423 114 623 -90 97
-247 141 -374 106z"/>
<path d="M10982 11444 c-69 -18 -104 -37 -153 -81 -137 -124 -172 -311 -89
-476 31 -63 116 -141 187 -175 51 -23 71 -27 158 -27 87 0 107 4 157 27 132
62 223 191 232 330 17 267 -233 472 -492 402z"/>
<path d="M8315 11396 c-129 -40 -222 -129 -266 -253 -29 -81 -23 -205 14 -284
87 -182 284 -270 475 -211 159 50 264 190 269 357 2 96 -17 161 -72 240 -40
59 -130 126 -193 146 -54 16 -181 19 -227 5z"/>
<path d="M17590 11306 c-176 -49 -292 -198 -292 -376 -1 -223 174 -395 397
-392 143 2 262 77 340 214 l23 40 -3 -39 c-7 -137 87 -286 223 -354 60 -30 76
-33 157 -33 107 -1 168 17 240 72 153 116 204 323 120 489 -31 62 -114 141
-183 175 -62 31 -74 33 -167 33 -93 0 -105 -2 -165 -32 -74 -36 -150 -107
-180 -167 -11 -23 -20 -36 -21 -31 -11 168 -68 276 -184 350 -27 18 -67 38
-88 45 -54 17 -164 20 -217 6z"/>
<path d="M7464 11261 c-180 -46 -302 -215 -292 -402 8 -144 91 -266 226 -331
61 -30 75 -33 162 -33 86 0 101 3 160 31 308 147 305 575 -5 714 -55 24 -194
36 -251 21z"/>
<path d="M13710 11175 c-191 -38 -324 -207 -314 -400 6 -125 79 -250 184 -313
75 -45 121 -56 216 -55 89 1 158 25 230 79 117 90 174 257 137 404 -51 198
-254 326 -453 285z"/>
<path d="M14677 11166 c-115 -47 -193 -128 -231 -238 -85 -252 103 -515 369
-515 224 0 404 191 389 411 -10 146 -90 263 -223 329 -57 28 -77 32 -156 34
-75 2 -100 -2 -148 -21z"/>
<path d="M1550 11140 c-180 -21 -309 -135 -350 -308 -11 -49 -8 -144 6 -189
34 -107 134 -216 231 -253 117 -45 259 -30 360 37 210 139 235 440 50 610 -83
76 -194 114 -297 103z"/>
<path d="M2397 11139 c-89 -21 -176 -82 -230 -161 -168 -247 -2 -588 294 -606
260 -15 459 207 409 460 -42 218 -258 358 -473 307z"/>
<path d="M3332 11138 c-111 -17 -235 -106 -283 -204 -104 -216 -10 -462 208
-544 263 -99 539 101 527 380 -10 234 -218 403 -452 368z"/>
<path d="M5182 11124 c-179 -47 -295 -196 -294 -379 2 -345 420 -518 664 -274
183 183 138 497 -89 616 -93 49 -189 62 -281 37z"/>
<path d="M15944 11101 c-103 -25 -211 -115 -258 -215 -37 -78 -46 -187 -22
-270 85 -291 447 -381 657 -163 132 137 144 350 28 504 -48 64 -106 105 -187
132 -63 21 -157 26 -218 12z m-74 -257 c0 -8 -19 -13 -24 -6 -3 5 1 9 9 9 8 0
15 -2 15 -3z"/>
<path d="M6121 10894 c-113 -24 -212 -100 -266 -204 -135 -266 69 -578 368
-564 107 5 200 50 275 133 129 143 124 381 -10 521 -99 103 -227 143 -367 114z"/>
<path d="M4268 10859 c-247 -38 -396 -312 -294 -542 134 -304 560 -309 709 -7
30 60 32 72 32 165 0 93 -2 105 -33 167 -76 155 -244 243 -414 217z"/>
<path d="M12455 10725 c-187 -44 -309 -205 -301 -397 8 -187 142 -337 326
-366 93 -14 157 -4 239 38 76 39 134 99 173 178 31 62 33 74 33 167 0 88 -3
107 -27 158 -34 72 -65 111 -130 160 -83 62 -209 87 -313 62z"/>
<path d="M10120 10689 c-99 -15 -196 -77 -253 -161 -112 -164 -91 -369 52
-506 199 -191 532 -114 632 146 30 78 30 196 0 272 -69 177 -245 279 -431 249z"/>
<path d="M16969 10652 c-207 -69 -318 -289 -248 -494 92 -274 437 -356 643
-152 190 187 134 510 -109 628 -79 38 -201 46 -286 18z"/>
<path d="M11323 10644 c-196 -40 -322 -205 -311 -405 13 -215 196 -377 411
-364 192 11 348 164 364 354 22 261 -208 467 -464 415z"/>
<path d="M9033 10538 c-126 -19 -255 -135 -298 -266 -25 -77 -17 -198 17 -273
126 -274 489 -314 670 -74 117 155 97 382 -47 514 -95 87 -208 120 -342 99z"/>
<path d="M6965 10456 c-275 -86 -372 -402 -193 -628 92 -117 267 -166 419
-118 205 64 317 288 248 492 -53 158 -188 259 -354 264 -44 1 -98 -3 -120 -10z
m89 -194 c3 -5 -1 -9 -9 -9 -8 0 -12 4 -9 9 3 4 7 8 9 8 2 0 6 -4 9 -8z"/>
<path d="M790 10434 c-112 -30 -199 -103 -253 -213 -30 -61 -32 -73 -32 -166
1 -88 4 -107 29 -159 36 -76 119 -159 193 -194 52 -24 70 -27 163 -27 99 0
110 2 172 33 79 39 149 111 187 192 21 47 25 69 26 155 0 94 -2 105 -32 166
-86 175 -271 262 -453 213z"/>
<path d="M13286 10394 c-131 -42 -227 -143 -260 -275 -20 -80 -20 -119 -1
-191 19 -74 47 -123 103 -180 150 -154 401 -153 553 3 188 193 127 514 -119
627 -72 33 -200 40 -276 16z m-92 -232 c3 -5 -1 -9 -9 -9 -8 0 -12 4 -9 9 3 4
7 8 9 8 2 0 6 -4 9 -8z m446 2 c0 -8 -19 -13 -24 -6 -3 5 1 9 9 9 8 0 15 -2
15 -3z"/>
<path d="M7978 10351 c-200 -64 -314 -264 -264 -461 32 -123 102 -209 216
-264 59 -28 73 -31 165 -31 89 0 106 3 157 28 145 71 228 200 230 356 3 260
-256 451 -504 372z"/>
<path d="M14294 10346 c-302 -111 -354 -497 -94 -689 103 -75 273 -88 394 -28
203 100 279 360 162 551 -42 68 -130 141 -199 165 -81 28 -189 28 -263 1z"/>
<path d="M15350 10363 c-48 -8 -115 -38 -162 -71 -152 -108 -202 -330 -113
-501 28 -55 115 -135 180 -166 161 -76 380 -20 478 122 55 80 76 149 74 243
-2 74 -6 94 -35 152 -79 162 -248 250 -422 221z"/>
<path d="M18020 10274 c-135 -36 -246 -154 -275 -290 -38 -183 45 -354 214
-437 61 -30 73 -32 166 -32 87 0 107 3 157 27 101 47 181 135 213 234 95 297
-174 579 -475 498z"/>
<path d="M1980 10235 c-94 -25 -163 -73 -221 -154 -90 -126 -96 -297 -14 -426
76 -120 199 -189 335 -187 271 3 454 268 363 524 -35 98 -134 196 -234 232
-63 23 -168 28 -229 11z"/>
<path d="M5210 10196 c-139 -38 -244 -141 -280 -276 -48 -174 42 -372 205
-452 97 -48 235 -49 337 -1 199 93 282 333 183 527 -83 163 -273 250 -445 202z"/>
<path d="M3158 10161 c-184 -46 -302 -208 -293 -401 5 -124 86 -254 193 -313
268 -146 582 35 584 337 1 255 -236 439 -484 377z"/>
<path d="M16203 10071 c-154 -57 -249 -181 -260 -338 -16 -227 146 -410 370
-419 160 -6 297 77 370 225 29 60 32 74 32 161 0 86 -3 101 -32 163 -39 83
-107 152 -188 191 -80 39 -212 47 -292 17z"/>
<path d="M6238 9839 c-203 -29 -355 -221 -333 -422 17 -148 96 -257 235 -320
56 -26 77 -30 150 -30 138 0 254 59 325 166 132 198 65 460 -146 567 -49 25
-74 32 -154 44 -11 2 -46 -1 -77 -5z"/>
<path d="M11665 9822 c-244 -86 -344 -373 -204 -585 139 -211 438 -235 611
-49 181 193 120 503 -121 615 -83 39 -206 47 -286 19z"/>
<path d="M10605 9821 c-108 -28 -208 -108 -254 -204 -132 -271 63 -576 359
-563 123 6 218 53 293 145 58 72 81 140 81 246 0 81 -3 97 -32 157 -67 139
-188 220 -337 224 -44 2 -93 0 -110 -5z"/>
<path d="M4237 9799 c-127 -30 -236 -136 -278 -268 -106 -343 281 -632 585
-437 65 41 106 88 142 162 26 54 29 69 29 164 0 95 -3 110 -29 164 -36 74 -77
121 -143 163 -87 55 -206 76 -306 52z"/>
<path d="M17098 9735 c-260 -67 -380 -383 -226 -597 46 -63 85 -96 158 -131
56 -28 77 -32 154 -34 143 -3 244 46 329 158 35 47 65 132 70 199 20 263 -229
471 -485 405z"/>
<path d="M12662 9691 c-227 -78 -332 -332 -226 -546 47 -95 128 -163 232 -195
136 -42 268 -14 375 80 149 131 173 366 53 523 -100 131 -285 190 -434 138z"/>
<path d="M9554 9691 c-175 -45 -295 -201 -296 -381 -1 -247 224 -430 468 -380
77 16 126 42 185 97 62 58 95 115 114 195 30 130 -2 251 -92 348 -78 84 -155
121 -265 126 -46 2 -97 0 -114 -5z"/>
<path d="M13747 9594 c-62 -15 -146 -64 -188 -110 -144 -158 -140 -394 8 -542
205 -205 556 -121 647 155 53 159 -6 335 -146 437 -85 63 -210 86 -321 60z
m-12 -454 c3 -6 -1 -7 -9 -4 -18 7 -21 14 -7 14 6 0 13 -4 16 -10z"/>
<path d="M1133 9516 c-64 -21 -125 -60 -170 -109 -227 -246 -64 -639 270 -653
352 -15 541 419 289 664 -76 74 -148 104 -257 108 -58 3 -105 -1 -132 -10z"/>
<path d="M8480 9505 c-114 -29 -210 -107 -262 -213 -31 -62 -33 -74 -33 -167
0 -92 2 -105 32 -166 53 -107 153 -187 268 -214 174 -41 365 55 443 223 22 49
26 71 26 157 1 93 -2 105 -31 166 -81 165 -272 258 -443 214z m-110 -221 c0
-8 -19 -13 -24 -6 -3 5 1 9 9 9 8 0 15 -2 15 -3z m405 -24 c-3 -5 -12 -10 -18
-10 -7 0 -6 4 3 10 19 12 23 12 15 0z m-45 -56 c0 -8 -19 -13 -24 -6 -3 5 1 9
9 9 8 0 15 -2 15 -3z"/>
<path d="M14774 9507 c-323 -83 -398 -517 -121 -700 260 -173 606 10 607 320
0 208 -157 377 -363 389 -40 2 -94 -2 -123 -9z m96 -287 c0 -5 -5 -10 -11 -10
-5 0 -7 5 -4 10 3 6 8 10 11 10 2 0 4 -4 4 -10z m-27 -85 c4 -8 3 -16 -1 -19
-4 -3 -9 4 -9 15 -2 23 3 25 10 4z m40 0 c-3 -9 -8 -14 -10 -11 -3 3 -2 9 2
15 9 16 15 13 8 -4z"/>
<path d="M7321 9474 c-201 -41 -340 -248 -301 -447 39 -200 208 -332 412 -321
167 8 323 143 354 305 53 283 -185 520 -465 463z m289 -254 c0 -5 -5 -10 -11
-10 -5 0 -7 5 -4 10 3 6 8 10 11 10 2 0 4 -4 4 -10z"/>
<path d="M2361 9370 c-308 -110 -365 -516 -98 -693 154 -102 357 -85 486 42
75 74 111 147 118 244 13 178 -70 319 -233 394 -78 36 -193 41 -273 13z m-94
-235 c0 -8 -4 -12 -9 -9 -5 3 -6 10 -3 15 9 13 12 11 12 -6z m127 -93 c3 -5
-1 -9 -9 -9 -8 0 -12 4 -9 9 3 4 7 8 9 8 2 0 6 -4 9 -8z"/>
<path d="M17850 9368 c-124 -18 -243 -108 -298 -226 -24 -50 -27 -69 -27 -157
0 -93 2 -105 32 -165 67 -133 171 -208 313 -224 271 -31 497 246 410 503 -65
193 -232 297 -430 269z"/>
<path d="M15623 9281 c-274 -101 -354 -441 -151 -644 153 -153 404 -153 554 1
80 82 115 175 110 293 -7 145 -90 269 -224 332 -86 40 -207 48 -289 18z"/>
<path d="M5255 9235 c-177 -37 -306 -195 -306 -377 -1 -299 310 -486 574 -345
146 77 231 252 198 409 -21 104 -65 177 -142 238 -91 72 -208 99 -324 75z"/>
<path d="M3483 9130 c-75 -26 -108 -46 -158 -96 -205 -202 -120 -558 154 -644
266 -84 527 118 509 395 -16 249 -275 426 -505 345z"/>
<path d="M16483 8980 c-141 -38 -244 -145 -276 -285 -82 -356 320 -617 616
-400 171 126 202 383 67 553 -94 120 -258 173 -407 132z m-78 -440 c3 -5 1
-10 -4 -10 -6 0 -11 5 -11 10 0 6 2 10 4 10 3 0 8 -4 11 -10z m380 -8 c-3 -3
-11 0 -18 7 -9 10 -8 11 6 5 10 -3 15 -9 12 -12z"/>
<path d="M11135 8966 c-117 -29 -212 -106 -266 -214 -30 -61 -33 -75 -34 -162
0 -86 3 -101 31 -160 40 -83 75 -124 146 -171 83 -53 194 -76 283 -57 64 14
158 64 202 109 23 23 56 69 75 103 31 58 33 66 33 166 0 94 -3 111 -27 163
-34 71 -65 111 -129 159 -84 63 -213 89 -314 64z"/>
<path d="M12110 8906 c-111 -31 -199 -106 -252 -214 -30 -61 -33 -74 -33 -162
0 -88 3 -101 33 -162 89 -181 281 -267 468 -210 268 83 363 415 179 629 -92
108 -256 157 -395 119z m94 -292 c3 -8 2 -12 -4 -9 -6 3 -10 10 -10 16 0 14 7
11 14 -7z m20 -93 c3 -4 -4 -7 -14 -6 -27 2 -33 10 -10 12 11 1 22 -2 24 -6z"/>
<path d="M6239 8869 c-118 -18 -237 -109 -290 -223 -123 -263 79 -563 372
-550 189 8 345 151 367 337 10 82 0 145 -36 220 -73 155 -240 242 -413 216z"/>
<path d="M10084 8837 c-94 -25 -190 -97 -239 -181 -115 -200 -36 -450 174
-550 60 -28 75 -31 166 -31 93 0 105 2 166 32 80 40 150 111 187 191 37 82 43
209 13 289 -42 111 -122 194 -228 236 -60 23 -175 30 -239 14z m284 -282 c-3
-3 -9 2 -12 12 -6 14 -5 15 5 6 7 -7 10 -15 7 -18z m-254 -73 c3 -5 -1 -9 -9
-9 -8 0 -12 4 -9 9 3 4 7 8 9 8 2 0 6 -4 9 -8z"/>
<path d="M13172 8806 c-114 -37 -203 -114 -250 -213 -23 -51 -27 -70 -27 -163
0 -96 2 -110 29 -165 39 -79 110 -149 194 -188 61 -29 76 -32 162 -32 87 0
101 3 161 32 213 105 290 354 172 551 -71 118 -178 182 -316 188 -53 3 -97 -1
-125 -10z"/>
<path d="M14147 8789 c-61 -14 -137 -58 -187 -109 -179 -178 -145 -469 70
-605 227 -144 539 -5 587 261 27 144 -34 301 -148 384 -86 62 -224 91 -322 69z"/>
<path d="M1628 8675 c-131 -36 -245 -148 -278 -274 -85 -321 246 -596 546
-454 219 103 290 388 144 580 -46 61 -122 119 -183 139 -63 21 -170 25 -229 9z"/>
<path d="M9115 8666 c-114 -36 -199 -110 -249 -216 -28 -58 -31 -75 -31 -160
0 -85 3 -102 31 -160 115 -242 423 -305 623 -126 38 33 88 117 105 176 60 202
-50 412 -251 479 -71 24 -166 27 -228 7z"/>
<path d="M4462 8649 c-150 -20 -285 -149 -320 -306 -41 -181 67 -375 245 -443
78 -30 196 -31 270 -2 185 71 290 262 248 448 -47 204 -232 331 -443 303z"/>
<path d="M17277 8579 c-212 -50 -346 -283 -283 -491 75 -251 373 -357 593
-211 63 42 104 91 141 170 23 51 27 70 26 153 0 86 -3 101 -32 160 -83 172
-265 261 -445 219z"/>
<path d="M8020 8566 c-121 -26 -217 -105 -273 -224 -27 -59 -31 -77 -31 -152
1 -141 63 -259 174 -330 230 -148 540 -21 594 243 58 279 -186 522 -464 463z"/>
<path d="M7050 8493 c-109 -28 -203 -106 -254 -213 -28 -59 -31 -74 -31 -165
0 -88 3 -107 27 -157 157 -335 643 -294 734 61 73 286 -190 548 -476 474z"/>
<path d="M14940 8496 c-74 -20 -117 -45 -173 -101 -193 -189 -137 -512 109
-627 247 -116 534 52 551 323 18 270 -230 476 -487 405z"/>
<path d="M2803 8461 c-165 -61 -268 -206 -265 -373 3 -174 104 -311 270 -367
192 -65 410 37 482 226 73 193 -10 403 -197 495 -82 40 -209 49 -290 19z"/>
<path d="M15797 8236 c-205 -59 -326 -292 -257 -496 57 -170 192 -265 375
-265 82 0 97 3 157 33 302 148 303 563 1 704 -55 26 -82 32 -148 35 -46 1
-100 -3 -128 -11z"/>
<path d="M5385 8161 c-100 -26 -195 -98 -244 -184 -123 -218 -21 -489 215
-566 193 -63 406 35 482 222 78 194 -7 411 -198 501 -52 24 -79 30 -145 32
-44 2 -93 0 -110 -5z"/>
<path d="M12652 8090 c-64 -14 -157 -67 -203 -117 -179 -194 -119 -498 121
-616 60 -30 72 -32 165 -32 93 0 105 2 166 32 305 150 295 581 -17 711 -59 25
-169 35 -232 22z"/>
<path d="M10652 8079 c-64 -12 -159 -67 -204 -118 -176 -198 -116 -502 122
-615 59 -28 74 -31 165 -31 106 0 154 14 235 70 84 58 149 181 155 292 5 110
-29 203 -106 287 -91 100 -227 143 -367 115z"/>
<path d="M11603 8035 c-174 -54 -290 -221 -278 -399 7 -107 47 -188 127 -263
102 -93 238 -125 369 -87 280 82 375 425 177 640 -96 104 -264 151 -395 109z"/>
<path d="M3722 7959 c-118 -22 -222 -101 -276 -209 -41 -82 -52 -156 -38 -240
70 -393 613 -441 751 -67 48 132 14 299 -81 399 -89 94 -231 140 -356 117z"/>
<path d="M13885 7961 c-63 -16 -126 -51 -174 -96 -215 -202 -150 -538 127
-651 80 -33 211 -29 294 9 231 104 304 398 148 596 -44 55 -103 99 -170 125
-50 20 -178 30 -225 17z"/>
<path d="M2163 7876 c-176 -57 -289 -219 -278 -399 7 -112 48 -193 137 -271
213 -187 552 -82 628 194 50 180 -45 378 -218 458 -69 31 -201 40 -269 18z
m242 -245 c3 -5 2 -12 -3 -15 -5 -3 -9 1 -9 9 0 17 3 19 12 6z"/>
<path d="M16644 7845 c-75 -18 -138 -52 -189 -103 -186 -185 -138 -507 93
-622 161 -81 351 -47 466 81 128 143 138 342 25 500 -80 113 -255 176 -395
144z"/>
<path d="M8625 7817 c-148 -50 -250 -164 -276 -309 -34 -192 81 -380 267 -438
116 -35 231 -19 330 46 118 78 178 193 176 334 -3 149 -93 285 -230 347 -69
31 -202 41 -267 20z"/>
<path d="M6370 7759 c-149 -16 -292 -139 -331 -281 -51 -192 54 -398 241 -469
226 -86 477 58 521 299 47 253 -170 480 -431 451z"/>
<path d="M9808 7708 c-243 -31 -395 -289 -308 -521 76 -202 300 -303 504 -227
261 98 334 441 136 638 -90 88 -206 126 -332 110z"/>
<path d="M14920 7576 c-203 -43 -341 -252 -300 -453 54 -258 322 -391 558
-275 131 64 213 197 214 347 1 248 -228 433 -472 381z"/>
<path d="M7372 7554 c-265 -68 -382 -362 -237 -590 152 -237 509 -235 658 3
76 121 76 294 2 413 -89 141 -266 214 -423 174z"/>
<path d="M4540 7460 c-244 -88 -338 -380 -191 -593 135 -196 425 -221 595 -51
172 172 144 464 -58 598 -100 66 -238 84 -346 46z"/>
<path d="M13102 7390 c-117 -32 -203 -104 -258 -215 -26 -54 -29 -70 -29 -160
0 -92 3 -105 32 -165 67 -137 178 -214 329 -225 316 -24 524 335 349 601 -91
138 -267 207 -423 164z m-92 -224 c0 -3 -4 -8 -10 -11 -5 -3 -10 -1 -10 4 0 6
5 11 10 11 6 0 10 -2 10 -4z"/>
<path d="M2943 7285 c-159 -49 -269 -188 -278 -352 -19 -317 330 -521 598
-350 257 165 235 542 -41 678 -58 28 -79 33 -152 35 -48 1 -103 -3 -127 -11z"/>
<path d="M10973 7209 c-111 -21 -230 -116 -279 -224 -67 -146 -29 -333 90
-443 195 -179 503 -121 619 117 29 61 32 74 32 166 0 93 -2 105 -33 167 -79
160 -256 250 -429 217z"/>
<path d="M12040 7182 c-75 -25 -127 -60 -183 -121 -63 -71 -90 -144 -91 -246
0 -101 14 -149 67 -226 47 -70 109 -117 195 -149 80 -31 203 -25 284 12 247
114 307 440 116 631 -100 100 -261 141 -388 99z"/>
<path d="M15840 7190 c-69 -15 -146 -59 -198 -114 -246 -261 -51 -675 307
-654 302 17 465 359 292 611 -85 124 -250 188 -401 157z"/>
<path d="M5494 7041 c-111 -19 -220 -106 -276 -218 -31 -63 -33 -75 -33 -163
1 -74 6 -107 23 -150 32 -81 109 -162 190 -202 63 -31 74 -33 172 -33 119 0
168 16 247 81 232 191 166 568 -117 669 -53 19 -148 26 -206 16z m76 -315 c0
-2 -7 -7 -16 -10 -8 -3 -12 -2 -9 4 6 10 25 14 25 6z"/>
<path d="M8140 7037 c-166 -47 -279 -178 -296 -346 -37 -350 391 -559 653
-318 210 194 143 545 -126 647 -67 26 -172 34 -231 17z"/>
<path d="M14055 7015 c-160 -36 -278 -162 -304 -321 -5 -33 -7 -70 -5 -84 12
-79 18 -100 40 -146 32 -68 107 -144 174 -177 240 -117 515 23 560 284 14 78
3 155 -34 233 -74 161 -258 251 -431 211z"/>
<path d="M9108 6906 c-179 -52 -300 -228 -282 -411 31 -332 443 -476 670 -233
181 194 125 506 -113 619 -76 36 -198 47 -275 25z"/>
<path d="M3743 6751 c-108 -40 -176 -103 -227 -211 -27 -58 -31 -75 -30 -155
0 -126 26 -188 113 -276 84 -84 150 -112 266 -113 97 -1 161 19 238 74 186
133 210 410 51 580 -28 30 -73 63 -112 82 -56 28 -77 33 -156 35 -71 3 -102
-1 -143 -16z"/>
<path d="M6422 6725 c-75 -21 -134 -58 -191 -121 -173 -189 -110 -495 126
-611 53 -25 68 -28 163 -28 99 0 110 2 171 32 241 119 295 432 108 624 -94 97
-250 140 -377 104z m272 -183 c3 -5 -1 -9 -9 -9 -8 0 -12 4 -9 9 3 4 7 8 9 8
2 0 6 -4 9 -8z"/>
<path d="M10103 6606 c-270 -88 -365 -422 -180 -632 139 -159 392 -176 548
-37 86 78 127 159 134 268 11 159 -74 304 -221 376 -57 28 -79 33 -153 36 -54
2 -102 -2 -128 -11z"/>
<path d="M14924 6566 c-74 -27 -109 -51 -168 -117 -65 -72 -90 -142 -90 -254
0 -97 16 -148 71 -228 100 -145 323 -199 486 -119 103 51 191 163 212 267 12
60 6 154 -14 208 -38 110 -102 179 -210 230 -87 41 -197 46 -287 13z"/>
<path d="M13040 6565 c-212 -60 -336 -293 -264 -497 37 -105 114 -190 212
-236 49 -22 71 -26 157 -27 93 0 105 2 166 32 215 106 289 362 164 563 -34 54
-111 119 -173 147 -73 32 -184 40 -262 18z"/>
<path d="M7327 6415 c-73 -19 -120 -47 -183 -110 -82 -81 -108 -146 -108 -270
0 -80 3 -97 31 -158 119 -253 450 -307 639 -105 25 27 57 74 72 106 24 50 27
69 27 162 0 97 -2 110 -30 164 -86 171 -269 257 -448 211z"/>
<path d="M12073 6329 c-136 -26 -255 -134 -300 -274 -29 -89 -11 -232 39 -310
114 -179 325 -238 515 -145 184 91 262 323 173 513 -73 155 -257 248 -427 216z"/>
<path d="M4650 6306 c-25 -7 -63 -21 -85 -31 -51 -24 -137 -109 -163 -161
-102 -200 -25 -433 175 -535 63 -32 73 -34 167 -34 92 0 107 3 167 31 215 102
291 363 164 564 -87 138 -269 209 -425 166z"/>
<path d="M11056 6254 c-235 -75 -345 -358 -221 -570 145 -248 510 -256 665
-14 129 201 49 469 -168 567 -72 33 -201 41 -276 17z"/>
<path d="M8305 6116 c-159 -50 -267 -177 -284 -337 -18 -167 73 -326 227 -397
151 -69 357 -22 458 105 170 212 92 518 -158 615 -64 25 -186 32 -243 14z"/>
<path d="M13964 6086 c-89 -30 -173 -93 -219 -167 -126 -198 -43 -468 173
-566 80 -37 219 -38 304 -5 151 61 255 232 242 398 -12 139 -114 275 -243 325
-69 27 -198 34 -257 15z"/>
<path d="M9325 5947 c-178 -60 -291 -222 -278 -402 14 -197 175 -354 370 -361
127 -5 228 38 310 130 173 197 111 497 -127 609 -54 26 -79 32 -150 34 -52 2
-101 -2 -125 -10z"/>
<path d="M5611 5938 c-148 -23 -262 -121 -310 -266 -81 -241 97 -495 356 -507
153 -7 299 83 367 225 28 59 31 74 31 165 0 88 -3 107 -27 157 -76 162 -246
254 -417 226z"/>
<path d="M12980 5713 c-126 -32 -228 -128 -270 -253 -47 -141 -9 -300 95 -402
80 -78 169 -112 286 -110 300 6 478 342 315 596 -92 143 -262 211 -426 169z"/>
<path d="M6524 5626 c-154 -37 -277 -182 -291 -343 -10 -122 26 -222 112 -309
192 -194 509 -137 632 114 25 51 28 68 28 157 0 93 -2 105 -32 165 -38 75 -60
103 -125 152 -85 65 -214 90 -324 64z"/>
<path d="M12033 5465 c-107 -33 -193 -108 -245 -213 -54 -109 -47 -249 18
-360 141 -240 489 -256 651 -30 124 172 85 417 -85 543 -90 66 -236 93 -339
60z m258 -242 c13 -16 12 -17 -3 -4 -10 7 -18 15 -18 17 0 8 8 3 21 -13z
m-284 -238 c0 -8 -4 -12 -9 -9 -5 3 -6 10 -3 15 9 13 12 11 12 -6z"/>
<path d="M10282 5429 c-312 -57 -430 -453 -199 -666 95 -87 213 -124 330 -102
130 23 232 100 290 218 30 61 32 73 32 166 0 87 -3 107 -26 156 -78 166 -253
259 -427 228z"/>
<path d="M7472 5391 c-169 -58 -274 -199 -274 -371 -1 -210 154 -376 363 -388
395 -23 572 485 246 706 -97 66 -232 87 -335 53z"/>
<path d="M11115 5316 c-63 -20 -104 -45 -158 -94 -145 -137 -161 -363 -37
-521 138 -175 390 -199 560 -53 232 198 151 580 -140 666 -63 19 -169 20 -225
2z"/>
<path d="M8522 5209 c-103 -19 -224 -114 -272 -214 -123 -255 68 -559 350
-556 36 0 72 2 80 4 58 14 81 24 125 53 71 47 89 65 125 120 184 291 -67 657
-408 593z m79 -396 c13 -16 12 -17 -3 -4 -10 7 -18 15 -18 17 0 8 8 3 21 -13z"/>
<path d="M9433 4984 c-121 -25 -223 -108 -276 -224 -27 -57 -30 -76 -30 -156
0 -81 4 -99 31 -157 54 -116 141 -189 264 -221 155 -40 332 29 417 164 188
295 -65 666 -406 594z"/>
<path d="M8035 4349 c-150 -52 -251 -188 -259 -348 -17 -356 412 -544 664
-292 27 27 57 65 68 86 l19 38 5 -65 c29 -361 518 -479 714 -172 64 99 79 213
44 327 -99 320 -525 372 -706 85 -24 -37 -41 -51 -31 -25 9 24 -11 115 -38
169 -87 179 -290 262 -480 197z"/>
<path d="M7325 3449 c-186 -26 -326 -188 -328 -379 -1 -94 21 -161 77 -238 75
-102 181 -154 311 -154 170 0 307 93 365 249 62 165 8 345 -134 450 -86 63
-184 88 -291 72z"/>
<path d="M8137 3389 c-108 -25 -205 -106 -258 -215 -27 -54 -33 -79 -35 -143
-6 -167 73 -299 224 -373 61 -30 74 -33 162 -33 91 0 100 2 172 38 87 43 142
98 185 186 25 50 28 67 28 161 0 88 -4 113 -23 154 -80 175 -270 269 -455 225z"/>
<path d="M7439 2660 c-251 -44 -390 -320 -280 -555 62 -134 200 -218 355 -217
192 1 346 134 379 326 28 164 -59 334 -209 409 -78 38 -164 52 -245 37z"/>
<path d="M6631 2350 c-103 -37 -183 -110 -230 -209 -23 -49 -26 -68 -26 -161
0 -88 4 -113 23 -154 86 -187 292 -278 482 -214 335 114 361 570 40 722 -84
40 -204 46 -289 16z"/>
</g>
</svg>
